<?xml version="1.0" encoding="UTF-8" standalone="no"?>
<svg
   xmlns:dc="http://purl.org/dc/elements/1.1/"
   xmlns:cc="http://creativecommons.org/ns#"
   xmlns:rdf="http://www.w3.org/1999/02/22-rdf-syntax-ns#"
   xmlns:svg="http://www.w3.org/2000/svg"
   xmlns="http://www.w3.org/2000/svg"
   xmlns:sodipodi="http://sodipodi.sourceforge.net/DTD/sodipodi-0.dtd"
   xmlns:inkscape="http://www.inkscape.org/namespaces/inkscape"
   width="24"
   height="24"
   fill-rule="evenodd"
   clip-rule="evenodd"
   id="svg2"
   version="1.1"
   inkscape:version="0.91 r13725"
   sodipodi:docname="iconmonstr-eat-4w.svg">
  <metadata
     id="metadata10">
    <rdf:RDF>
      <cc:Work
         rdf:about="">
        <dc:format>image/svg+xml</dc:format>
        <dc:type
           rdf:resource="http://purl.org/dc/dcmitype/StillImage" />
      </cc:Work>
    </rdf:RDF>
  </metadata>
  <defs
     id="defs8" />
  <sodipodi:namedview
     pagecolor="#ffffff"
     bordercolor="#666666"
     borderopacity="1"
     objecttolerance="10"
     gridtolerance="10"
     guidetolerance="10"
     inkscape:pageopacity="0"
     inkscape:pageshadow="2"
     inkscape:window-width="717"
     inkscape:window-height="480"
     id="namedview6"
     showgrid="false"
     inkscape:zoom="9.7571059"
     inkscape:cx="12"
     inkscape:cy="11.898305"
     inkscape:window-x="0"
     inkscape:window-y="0"
     inkscape:window-maximized="0"
     inkscape:current-layer="svg2" />
  <path
     d="M17.995 13v8.5c0 .374.343.5.5.5h.001c.276 0 .5-.224.5-.5 0 0 .008-16.774 0-19.265-.933 1.081-2.556 5.196-3.333 10.765h2.332zm.501 11c-1.203 0-2.501-.956-2.501-2.5v-6.501h-2.545c.136-4.058 2.442-14.999 5.738-14.999 1.007 0 1.801.811 1.807 1.845.01 1.348.001 19.655.001 19.655 0 1.378-1.122 2.5-2.5 2.5m-7.849-24h-6.315c-.28 1.447-1.071 5.458-1.309 7.853-.207 2.084 1.016 3.03 1.709 3.55.147.117.265.294.265.482.003 1.595.003 8.287.003 9.591 0 1.391.98 2.524 2.552 2.524 1.453 0 2.448-1.139 2.448-2.524v-9.538c0-.19.102-.369.251-.486.723-.531 1.991-1.464 1.755-3.638-.259-2.383-1.074-6.393-1.359-7.814m-1.476 2s.616 3.909.847 6.029c.13 1.212-.559 1.494-1.152 1.964-.791.626-.866 1.186-.866 1.771v9.609c0 .299-.09.627-.506.627-.417 0-.494-.346-.494-.627v-9.615c0-.574-.042-1.143-.828-1.773-.581-.466-1.275-.769-1.159-1.935.211-2.114.774-6.05.774-6.05h.476v5h.817l.139-5h.524l.123 5h.835l-.033-5h.503z"
     fill="#030405"
     id="path4"
     style="fill:#e6e6e6" />
</svg>
