<?xml version="1.0" encoding="UTF-8" standalone="no"?>
<svg xmlns:rdf="http://www.w3.org/1999/02/22-rdf-syntax-ns#" xmlns="http://www.w3.org/2000/svg" height="200" width="200" version="1.1" xmlns:cc="http://creativecommons.org/ns#" xmlns:dc="http://purl.org/dc/elements/1.1/" viewBox="0 0 200 200">
 <g transform="translate(0 -852.36)">
  <g stroke-linejoin="round" stroke="#fff" stroke-width="1.8563" fill="none">
   <circle opacity=".955" cx="101.57" cy="930.88" r="59.466"/>
   <circle opacity=".955" cx="70.237" cy="975.35" r="59.466"/>
   <circle opacity=".955" cx="131.84" cy="974.93" r="59.466"/>
  </g>
  <g>
   <g stroke="#fff">
    <path opacity=".955" d="m97.096 921.08c-4.3271-2.1834-9.6293-3.9752-15.357-5.1894-5.6713-1.2024-16.098-1.3184-21.962-0.24439-3.7367 0.68449-10.638 2.7663-13.945 4.207l-1.5998 0.69678 0.28485-1.7898c0.52742-3.314 3.1358-10.441 5.4401-14.864 8.0811-15.512 22.651-26.475 40.227-30.27 5.2371-1.1307 18.674-1.0107 23.829 0.21286 22.394 5.3149 39.465 22.259 44.414 44.084 0.59292 2.6148 0.5927 2.6164-0.30953 2.3377-0.49659-0.1534-1.5582-0.6093-2.3593-1.0131-2.1406-1.0792-9.2215-3.1777-13.514-4.005-5.1829-0.999-15.647-0.98274-21 0.0326-5.5217 1.0474-11.981 3.2048-16.663 5.5658l-3.9802 2.0068-3.505-1.7686v0.00001z" stroke-width="2.2275" fill="#00a8ff"/>
    <path opacity=".955" d="m64.202 1033.2c-27.146-2.6263-49.59-25.332-51.836-52.44-1.1507-13.887 2.0492-26.728 9.3618-37.569 3.4463-5.1094 9.9952-11.819 14.965-15.331l4.1166-2.9097 0.38273 8.1272c0.41976 8.9135 1.5685 14.242 4.6836 21.725 4.0217 9.6605 13.209 20.727 21.713 26.153 2.7789 1.7732 4.1677 3.0566 4.396 4.0624 4.083 17.99 11.641 29.891 25.282 39.809l1.7643 1.2828-4.4724 2.0741c-5.9556 2.7619-11.986 4.3569-19.084 5.0469-3.2165 0.3127-5.9805 0.5394-6.1422 0.5036-0.16173-0.036-2.47-0.2755-5.1295-0.5327z" stroke-width="2.2275" fill="#49d500"/>
    <path opacity=".955" d="m123.78 1032.6c-5.0262-0.7331-11.221-2.5294-15.781-4.5757-2.1833-0.9798-3.9696-1.9023-3.9696-2.05s1.257-1.1932 2.7934-2.3234c3.5493-2.6109 9.4049-8.5694 12.527-12.748 4.5772-6.1248 10.555-20.299 10.555-25.026 0-0.89758 1.2382-2.0141 4.5577-4.1098 5.3891-3.4023 13.659-11.414 17.149-16.614 6.4373-9.591 9.9155-20.323 10.474-32.319 0.18453-3.9623 0.49549-7.2016 0.69102-7.1985 0.19553 0.003 2.1125 1.3254 4.26 2.9385 9.8997 7.4362 17.776 19.16 21.22 31.586 1.0755 3.8802 1.2696 6.1454 1.2744 14.869 0.006 9.4902-0.11633 10.687-1.5602 15.372-2.1842 7.0866-4.0584 11.105-7.8048 16.736-12.366 18.584-34.625 28.636-56.386 25.463z" stroke-width="3.5286" fill="#ffa800"/>
    <path opacity=".955" d="m97.266 1021.8c-8.7784-6.615-15.1-14.718-19.21-24.622-1.8014-4.3415-3.6712-10.871-3.2372-11.305 0.14338-0.14338 1.9445 0.42954 4.0026 1.2731 13.347 5.4711 30.014 5.7237 43.497 0.65924 2.8789-1.0813 5.2343-1.7991 5.2343-1.595 0 0.20412-0.54361 2.3328-1.208 4.7304-2.6322 9.4987-8.0919 18.666-15.327 25.736-4.2139 4.1176-8.8681 7.8295-9.7768 7.7975-0.24539-0.01-2.034-1.2122-3.9747-2.6746z" stroke-width="1.782" fill="#94b100"/>
    <g stroke-width="2.8228">
     <path opacity=".955" d="m130.85 978.41c0.46721-3.9752-0.62301-13.673-2.1764-19.359-1.4652-5.3631-6.1352-15.021-9.325-19.284-3.2212-4.3054-8.3643-9.5365-12.564-12.778-3.2531-2.5114-3.3636-2.6805-2.2572-3.4555 2.3258-1.629 10.498-4.5272 15.961-5.6607 4.5699-0.9481 7.049-1.1048 13.534-0.8555 8.7663 0.33698 14.351 1.5509 21.177 4.6027 4.0067 1.7915 4.0647 1.8499 4.4607 4.4908 0.51351 3.4243-0.0695 11.661-1.2086 17.077-2.8703 13.645-12.02 27.387-23.534 35.347l-4.4437 3.0719 0.37561-3.1959z" fill="#ae67e3"/>
     <path opacity=".955" d="m67.441 978.01c-15.443-11.393-24.328-29.204-23.858-47.826l0.16597-6.5824 3.2345-1.5845c13.11-6.4221 32.453-6.3303 47.111 0.22365l4.2277 1.8904-1.9985 1.493c-3.7506 2.8018-10.624 9.7327-13.45 13.562-4.9324 6.6847-8.8596 15.667-10.67 24.406-0.40207 1.9407-0.74984 6.6372-0.77283 10.437-0.02298 3.7995-0.04179 6.905-0.04179 6.9012 0-0.004-1.7766-1.3177-3.948-2.9197z" fill="#10e0cb"/>
     <path opacity=".955" d="m94.325 988.8c-5.2043-0.82786-12.03-2.7901-15.859-4.5591l-4.3305-2.0008-0.41255-3.302c-0.73255-5.8631 0.68644-16.213 3.2262-23.531 1.6128-4.6474 5.3131-11.42 8.5075-15.571 2.9572-3.8431 11.065-11.614 13.695-13.126l1.7556-1.0092 3.4737 2.5276c10.348 7.5298 18.574 19.34 21.946 31.509 1.5838 5.7152 2.5479 15.335 1.9762 19.717l-0.45818 3.512-4.0151 1.6696c-6.8344 2.8419-12.396 3.9956-20.39 4.2295-4.0431 0.11832-8.1451 0.0888-9.1154-0.0655z" fill="#a4a4a4"/>
    </g>
   </g>
   <g font-family="sans-serif">
    <text opacity=".955" style="word-spacing:0px;letter-spacing:0px" xml:space="preserve" transform="rotate(45)" stroke="#ffffff" font-size="12.5px" y="670.54382" x="691.97882" stroke-width="1px" line-height="125%" fill="#ffffff"><tspan x="691.97882" y="670.54382">Environmental</tspan></text>
    <text opacity=".955" style="word-spacing:0px;letter-spacing:0px" xml:space="preserve" transform="rotate(-45)" stroke="#ffffff" font-size="12.5px" y="815.7301" x="-611.26208" stroke-width="1px" line-height="125%" fill="#ffffff"><tspan x="-611.26208" y="815.7301">Social</tspan></text>
    <text style="word-spacing:0px;letter-spacing:0px" xml:space="preserve" font-size="22.5px" y="897.12354" x="64.946777" line-height="125%" fill="#000000"><tspan x="64.946777" y="897.12354"/></text>
    <text opacity=".955" style="word-spacing:0px;letter-spacing:0px" xml:space="preserve" font-size="12.5px" stroke="#ffffff" y="908.10614" x="70.523682" stroke-width="1px" line-height="125%" fill="#ffffff"><tspan x="70.523682" y="908.10614">Economic</tspan></text>
   </g>
  </g>
 </g>
</svg>
